<svg width="10" height="10" viewBox="0 0 7 6" fill="none" xmlns="http://www.w3.org/2000/svg">
<path fill-rule="evenodd" clip-rule="evenodd" d="M1.02511 4.38909C0.829847 4.58435 0.829847 4.90093 1.02511 5.09619C1.22037 5.29146 1.53695 5.29146 1.73222 5.09619L3.49998 3.32843L5.26776 5.09621C5.46302 5.29147 5.7796 5.29147 5.97486 5.09621C6.17012 4.90095 6.17012 4.58436 5.97486 4.3891L4.20708 2.62133L5.97486 0.853553C6.17012 0.658291 6.17012 0.341709 5.97486 0.146447C5.77959 -0.0488156 5.46301 -0.0488155 5.26775 0.146447L3.49998 1.91422L1.73222 0.146463C1.53696 -0.0487992 1.22038 -0.0487992 1.02511 0.146463C0.829852 0.341725 0.829852 0.658308 1.02511 0.85357L2.79287 2.62133L1.02511 4.38909Z" fill="white"/>
</svg>
